<?xml version="1.0"?>
<svg width="140" height="166" xmlns="http://www.w3.org/2000/svg" xmlns:svg="http://www.w3.org/2000/svg">
 <g class="layer">
  <title>Layer 1</title>
  <path d="m83.63,128.25c0,0 -3.75,0.5 -4,0.5c-0.25,0 -3.25,3.5 -3.38,3.5c-0.13,0 -3.13,4 -3.25,4c-0.13,0 -1.88,1.5 -2,1.5c-0.13,0 -3.63,-3 -3.75,-3c-0.13,0 -2.88,-4 -3,-4c-0.13,0 -4.63,-4.5 -4.75,-4.5c-0.13,0 -2.88,0.75 -3,0.75c-0.13,0 -0.63,2.75 -0.75,2.75c-0.13,0 3.63,4 3.5,4c-0.13,0 5.88,4.25 5.75,4.25c-0.13,0 2.88,3.5 2.75,3.5c-0.13,0 0.63,3 0.5,3c-0.13,0 4.63,-2.75 4.5,-2.75c-0.13,0 5.38,-3.75 5.25,-3.75c-0.13,0 5.88,-5.25 5.75,-5.25c-0.13,0 1.63,-3 1.5,-3c-0.13,0 -1.63,-1.5 -1.63,-1.5z" fill="#000000" id="svg_594" transform="matrix(1 0 0 1 0 0)"/>
  <path d="m73.5,20.38c0,0 3.98,4.1 0.5,4c-3.48,-0.1 3.5,3.25 3.5,3.38c0,0.13 4,3.13 4,3.25c0,0.13 1.5,1.88 1.5,2c0,0.13 -3,3.63 -3,3.75c0,0.13 -4,2.88 -4,3c0,0.13 -4.5,4.63 -4.5,4.75c0,0.13 0.75,2.88 0.75,3c0,0.13 2.75,0.63 2.75,0.75c0,0.13 4,-3.63 4,-3.5c0,0.13 4.25,-5.88 4.25,-5.75c0,0.13 3.5,-2.88 3.5,-2.75c0,0.13 3,-0.63 3,-0.5c0,0.13 -2.75,-4.63 -2.75,-4.5c0,0.13 -3.75,-5.38 -3.75,-5.25c0,0.13 -5.25,-5.88 -5.25,-5.75c0,0.13 -3,-1.63 -3,-1.5c0,0.13 -1.5,1.63 -1.5,1.63z" fill="#000000" id="svg_595" transform="rotate(-5.7106 80.625 33.5)"/>
  <path d="m111.38,59.25l-4.88,5.25l-5.75,5.75l-6,8.5c0,0 -5.13,2.25 -5.13,2.25c0,0 -7.5,4.75 -7.63,4.75c-0.13,0 -5.38,7 -5.5,7c-0.13,0 -4.13,8 -4.25,8c-0.13,0 -9.63,6.5 -9.75,6.5c-0.13,0 -6.13,6.5 -6.25,6.5c-0.13,0 -6.88,8.75 -7,8.75c-0.13,0 -6.38,-4 -6.5,-4c-0.13,0 -6.88,-6.75 -7,-6.75c-0.13,0 -4.38,-8 -4.5,-8c-0.13,0 3.88,-6.5 3.75,-6.5c-0.13,0 4.63,-3 4.5,-3c-0.13,0 8.13,-8.5 8,-8.5c-0.13,0 11.13,-10.25 11,-10.25c-0.13,0 11.63,-11.5 11.5,-11.5c-0.13,0 15.38,-15.75 15.25,-15.75c-0.13,0 7.38,-6.5 7.25,-6.5c-0.13,0 2.38,-0.25 2.25,-0.25c-0.13,0 2.38,2.75 2.25,2.75c-0.13,0 -7.13,4.75 -7.25,4.75c-0.13,0 -7.38,6.25 -7.5,6.25c-0.13,0 -7.38,9 -7.5,9c-0.13,0 -8.13,6.75 -8.25,6.75c-0.13,0 -5.88,7.75 -6.13,7.75c-0.25,0 -10.25,8.25 -10.38,8.25c-0.13,0 -7.63,9.5 -7.75,9.5c-0.13,0 -7.13,6.75 -7.25,6.75c-0.13,0 4.88,7 4.75,7c-0.13,0 7.13,4.75 7,4.75c-0.13,0 5.63,-1.25 5.5,-1.25c-0.13,0 4.38,-6.5 4.25,-6.5c-0.13,0 8.38,-5.75 8.25,-5.75c-0.13,0 6.38,-5.5 6.25,-5.5c-0.13,0 4.63,-9 4.5,-9c-0.13,0 8.13,-6.25 8,-6.25c-0.13,0 8.88,-4.5 8.88,-4.75c0,-0.25 4.75,-5.75 4.63,-5.75c-0.13,0 5.13,-7.25 5,-7.25c-0.13,0 2.38,-4.5 2.25,-4.5c-0.13,0 -5.13,-6 -5.25,-6c-0.13,0 -5.88,-5.25 -6,-5.25" fill="#000000" id="svg_596" transform="matrix(1 0 0 1 0 0)"/>
  <path d="m117.38,64.63l-4.38,1.25l-4.5,3.75l-7,8l-6.75,5.25l-7.25,7.5l-7.25,7.25l-6.25,7l-4,5.75l6.75,9.25l8.5,6.75l4.5,1l5,-2.25l2.5,-4l8.75,-9l5.5,-5.75l2.75,-1l-1,-2.75l5,0.5l0.75,-4.25l3.75,-2.25l5.5,-6.25l7,-8.75l-3.75,-4.5l-3.25,6.25l-3.75,0.75l-2.25,5l-9.25,6.5l-4.5,6l-7,6l-6.25,7.25c0,0 -3.88,5.25 -3.88,5.5c0,0.25 -6.5,-2.25 -6.63,-2.25c-0.13,0 -7.88,-8.25 -8,-8.25c-0.13,0 6.88,-8.25 6.75,-8.25c-0.13,0 7.63,-8 7.5,-8c-0.13,0 8.38,-7.5 8.25,-7.5c-0.13,0 7.63,-9 7.5,-9c-0.13,0 6.88,-5 6.75,-5c-0.13,0 5.38,0.75 5.25,0.75c-0.13,0 5.13,4.75 5,4.75c-0.13,0 3.88,3.5 3.75,3.5c-0.13,0 2.88,-6.25 2.75,-6.25c-0.13,0 -12.88,-10.25 -12.88,-10.25z" fill="#000000" id="svg_593" transform="matrix(1 0 0 1 0 0)"/>
  <path d="m56.63,35.75l-4.38,1.25l-4.5,3.75l-7,8l-6.75,5.25l-7.25,7.5l-7.25,7.25l-6.25,7l-4,5.75l6.75,9.25l8.5,6.75l4.5,1l5,-2.25l2.5,-4l8.75,-9l5.5,-5.75l2.75,-1l-1,-2.75l5,0.5l0.75,-4.25l3.75,-2.25l5.5,-6.25l7,-8.75l-3.75,-4.5l-3.25,6.25l-3.75,0.75l-2.25,5l-9.25,6.5l-4.5,6l-7,6l-6.25,7.25c0,0 -3.88,5.25 -3.88,5.5c0,0.25 -6.5,-2.25 -6.63,-2.25c-0.13,0 -7.88,-8.25 -8,-8.25c-0.13,0 6.88,-8.25 6.75,-8.25c-0.13,0 7.63,-8 7.5,-8c-0.13,0 8.38,-7.5 8.25,-7.5c-0.13,0 7.63,-9 7.5,-9c-0.13,0 6.88,-5 6.75,-5c-0.13,0 5.38,0.75 5.25,0.75c-0.13,0 5.13,4.75 5,4.75c-0.13,0 3.88,3.5 3.75,3.5c-0.13,0 2.88,-6.25 2.75,-6.25c-0.13,0 -12.88,-10.25 -12.88,-10.25z" fill="#000000" id="svg_592" transform="matrix(1 0 0 1 0 0)"/>
  <path d="m73,19l1,1l-1,-1z" fill="#37c4aa" id="svg_2"/>
  <path d="m70,20l0,2l2,-2l-2,0z" fill="#2232c9" id="svg_3"/>
  <path d="m71,21l-1,2l1,-2z" fill="#af4b58" id="svg_4"/>
  <path d="m74,21l1,1l-1,-1z" fill="#af4b58" id="svg_6"/>
  <path d="m68,22l1,1l-1,-1z" fill="#e2e4e2" id="svg_7"/>
  <path d="m75,22l1,1l-1,-1z" fill="#af4b58" id="svg_8"/>
  <path d="m70,23l1,1l-1,-1z" fill="#37c4aa" id="svg_9"/>
  <path d="m76,23l1,1l-1,-1z" fill="#2232c9" id="svg_10"/>
  <path d="m70,24l1,1l-1,-1z" fill="#af4b58" id="svg_11"/>
  <path d="m77,24l2,2l0,-2l-2,0z" fill="#2232c9" id="svg_12"/>
  <path d="m71,25l1,1l-1,-1z" fill="#37c4aa" id="svg_13"/>
  <path d="m72,26l-1,1l0,1l1,1l1,0l1,-1l0,-1l-2,-1z" fill="#af4b58" id="svg_14"/>
  <path d="m79,26l1,1l-1,-1z" fill="#2232c9" id="svg_15"/>
  <path d="m72,27l1,1l-1,-1z" fill="#050404" id="svg_16"/>
  <path d="m80,27l1,1l-1,-1z" fill="#2232c9" id="svg_17"/>
  <path d="m74,28l1,1l-1,-1z" fill="#af4b58" id="svg_18"/>
  <path d="m82,28l1,1l-1,-1z" fill="#2232c9" id="svg_19"/>
  <path d="m75,29l1,1l-1,-1m1,1l1,1l-1,-1z" fill="#af4b58" id="svg_20"/>
  <path d="m83,30l2,2l-2,-2z" fill="#2232c9" id="svg_21"/>
  <path d="m84,30l1,1l-1,-1z" fill="#37c4aa" id="svg_22"/>
  <path d="m77,31l1,1l-1,-1m6,0l1,1l-1,-1z" fill="#af4b58" id="svg_23"/>
  <path d="m55.67,32.33l0.66,0.34l-0.66,-0.34z" fill="#37c4aa" id="svg_24"/>
  <path d="m78,32l1,1l-1,-1m7,0l3,3l-3,-3m-6,1l1,1l-1,-1z" fill="#af4b58" id="svg_25"/>
  <path d="m87,33l1,1l-1,-1z" fill="#2232c9" id="svg_26"/>
  <path d="m53,34l-11,10l-9.4,10.8l-24.6,26.2c16.09,-11.34 35.66,-30.91 47,-47l-2,0z" fill="#af4b58" id="svg_27"/>
  <path d="m55,34l1,1l-1,-1z" fill="#37c4aa" id="svg_28"/>
  <path d="m56,34l2,2l-2,-2z" fill="#af4b58" id="svg_29"/>
  <path d="m57,34l1,1l-1,-1z" fill="#2232c9" id="svg_30"/>
  <path d="m80,34l1,1l-1,-1m9,0l1,1l-1,-1z" fill="#af4b58" id="svg_31"/>
  <path d="m52,35l1,1l-1,-1z" fill="#2232c9" id="svg_32"/>
  <path d="m58,35l1,1l-1,-1z" fill="#37c4aa" id="svg_34"/>
  <path d="m81,35l1,1l-1,-1m7,0l1,1l-1,-1m1,1l1,1l-1,-1m-31,1l1,1l-1,-1z" fill="#af4b58" id="svg_35"/>
  <path d="m60,37l4,4l-4,-4z" fill="#e2e4e2" id="svg_36"/>
  <path d="m80,40l3,-3l-3,3z" fill="#af4b58" id="svg_37"/>
  <path d="m89,37l2,2l-2,-2z" fill="#37c4aa" id="svg_38"/>
  <path d="m59,38l5,5l-5,-5z" fill="#af4b58" id="svg_39"/>
  <path d="m60,38l1,1l-1,-1z" fill="#050404" id="svg_40"/>
  <path d="m89,38l1,1l-1,-1m-28,1l1,1l-1,-1m27,0l1,1l-1,-1z" fill="#2232c9" id="svg_41"/>
  <path d="m92,39l-6,8l10,-6l0,-1l-4,-1z" fill="#af4b58" id="svg_42"/>
  <path d="m93.67,39.33l0.66,0.34l-0.66,-0.34z" fill="#e2e4e2" id="svg_43"/>
  <path d="m46,40l1,1l-1,-1z" fill="#2232c9" id="svg_44"/>
  <path d="m79,40l1,1l-1,-1z" fill="#af4b58" id="svg_45"/>
  <path d="m86,40l1,1l-1,-1z" fill="#37c4aa" id="svg_46"/>
  <path d="m87,40l1,1l-1,-1z" fill="#2232c9" id="svg_47"/>
  <path d="m91,40l1,1l-1,-1z" fill="#e2e4e2" id="svg_48"/>
  <path d="m94,40l1,1l-1,-1z" fill="#050404" id="svg_49"/>
  <path d="m54,41l1,1l-1,-1z" fill="#37c4aa" id="svg_50"/>
  <path d="m55,41l1,1l-1,-1z" fill="#2232c9" id="svg_51"/>
  <path d="m78,41l1,1l-1,-1z" fill="#af4b58" id="svg_52"/>
  <path d="m56,42l1,1l-1,-1z" fill="#af4b58" id="svg_55"/>
  <path d="m76,42l1,1l-1,-1z" fill="#2232c9" id="svg_56"/>
  <path d="m77,42l1,1l-1,-1z" fill="#af4b58" id="svg_57"/>
  <path d="m85,42l1,1l-1,-1m10,0l4,4l-4,-4z" fill="#2232c9" id="svg_58"/>
  <path d="m96,42l1,1l-1,-1z" fill="#af4b58" id="svg_59"/>
  <path d="m53,43l1,1l-1,-1z" fill="#2232c9" id="svg_60"/>
  <path d="m57,43l1,1l-1,-1m7,0l1,1l-1,-1m12,0l1,1l-1,-1z" fill="#af4b58" id="svg_61"/>
  <path d="m84,43l1,1l-1,-1z" fill="#2232c9" id="svg_62"/>
  <path d="m95,43l1,1l-1,-1m-44,1l1,1l-1,-1z" fill="#af4b58" id="svg_63"/>
  <path d="m58,44l1,1l-1,-1z" fill="#2232c9" id="svg_64"/>
  <path d="m65,44l3,2l0,-1l-3,-1z" fill="#af4b58" id="svg_65"/>
  <path d="m66,44l1,1l-1,-1m6,1l2,3l1,0l0,-4l-3,1z" fill="#2232c9" id="svg_66"/>
  <path d="m75,44l1,1l-1,-1z" fill="#af4b58" id="svg_67"/>
  <path d="m83,44l1,1l-1,-1z" fill="#2232c9" id="svg_68"/>
  <path d="m50,45l1,1l-1,-1m9,0l1,1l-1,-1z" fill="#af4b58" id="svg_69"/>
  <path d="m82,45l1,1l-1,-1m-41.67,1.67l0.34,0.66l-0.34,-0.66z" fill="#2232c9" id="svg_70"/>
  <path d="m49,46l1,1l-1,-1z" fill="#37c4aa" id="svg_71"/>
  <path d="m68.33,46.67l0.34,0.66l-0.34,-0.66z" fill="#af4b58" id="svg_72"/>
  <path d="m71,46l1,1l-1,-1m10,0l1,1l-1,-1m18.67,0.33l0.66,0.34l-0.66,-0.34m-38.67,0.67l1,1l-1,-1m8,0l1,1l-1,-1z" fill="#2232c9" id="svg_73"/>
  <path d="m73,47l1,1l-1,-1z" fill="#e2e4e2" id="svg_74"/>
  <path d="m80,47l1,1l-1,-1m5,0l1,1l-1,-1m-47,1l1,1l-1,-1z" fill="#2232c9" id="svg_75"/>
  <path d="m47,48l1,1l-1,-1z" fill="#af4b58" id="svg_76"/>
  <path d="m62,48l1,1l-1,-1m8,0l4,3l0,-1l-4,-2z" fill="#2232c9" id="svg_77"/>
  <path d="m71,48l1,1l-1,-1z" fill="#37c4aa" id="svg_78"/>
  <path d="m79,48l-1,2l1,-2z" fill="#2232c9" id="svg_79"/>
  <path d="m84.67,48.33l0.66,0.34l-0.66,-0.34z" fill="#af4b58" id="svg_80"/>
  <path d="m46,49l1,1l-1,-1m17,0l0,2l2,0l-2,-2m13.67,0.33l0.66,0.34l-0.66,-0.34z" fill="#af4b58" id="svg_82"/>
  <path d="m79,49l1,1l-1,-1m3.33,0.67l0.34,0.66l-0.34,-0.66z" fill="#37c4aa" id="svg_83"/>
  <path d="m83,49l1,1l-1,-1z" fill="#af4b58" id="svg_84"/>
  <path d="m91,49l1,1l-1,-1z" fill="#2232c9" id="svg_85"/>
  <path d="m92,49l1,1l-1,-1m3,0l1,1l-1,-1z" fill="#af4b58" id="svg_86"/>
  <path d="m102,49l1,1l-1,-1z" fill="#2232c9" id="svg_87"/>
  <path d="m45,50l1,1l-1,-1z" fill="#af4b58" id="svg_88"/>
  <path d="m71,50l1,1l-1,-1z" fill="#37c4aa" id="svg_89"/>
  <path d="m90,50l1,1l-1,-1z" fill="#2232c9" id="svg_90"/>
  <path d="m96,50l1,1l-1,-1z" fill="#af4b58" id="svg_91"/>
  <path d="m103,50l2,2l0,-2l-2,0m-67.33,1.33l0.66,0.34l-0.66,-0.34z" fill="#2232c9" id="svg_92"/>
  <path d="m44,51l1,1l-1,-1m21,0l1,1l-1,-1m16,0l1,1l-1,-1m8,0l1,1l-1,-1m8,0l1,1l-1,-1z" fill="#af4b58" id="svg_93"/>
  <path d="m34,52l1,1l-1,-1z" fill="#2232c9" id="svg_94"/>
  <path d="m43,52l1,1l-1,-1m23,0l-2,4l2,-4m7,0l1,1l-1,-1m7,0l1,1l-1,-1z" fill="#af4b58" id="svg_95"/>
  <path d="m88,52l1,1l-1,-1z" fill="#2232c9" id="svg_96"/>
  <path d="m96,52l1,1l-1,-1m2,0l1,1l-1,-1z" fill="#af4b58" id="svg_97"/>
  <path d="m106,52l1,1l-1,-1m-64,1l1,1l-1,-1z" fill="#37c4aa" id="svg_98"/>
  <path d="m44,53l-1,2l1,-2z" fill="#af4b58" id="svg_99"/>
  <path d="m64,53l1,1l-1,-1z" fill="#e2e4e2" id="svg_100"/>
  <path d="m79,53l1,1l-1,-1z" fill="#2232c9" id="svg_101"/>
  <path d="m87,53l1,1l-1,-1z" fill="#37c4aa" id="svg_102"/>
  <path d="m41,54l1,1l-1,-1z" fill="#af4b58" id="svg_103"/>
  <path d="m72,54l1,1l-1,-1z" fill="#37c4aa" id="svg_104"/>
  <path d="m74,54l1,1l-1,-1z" fill="#e2e4e2" id="svg_105"/>
  <path d="m78.67,54.33l0.66,0.34l-0.66,-0.34m7.33,-0.33l1,1l-1,-1z" fill="#af4b58" id="svg_106"/>
  <path d="m99,54l1,1l-1,-1z" fill="#2232c9" id="svg_107"/>
  <path d="m100,54l1,1l-1,-1z" fill="#af4b58" id="svg_108"/>
  <path d="m107,54l2,2l-2,-2z" fill="#2232c9" id="svg_109"/>
  <path d="m108,54l1,1l-1,-1z" fill="#37c4aa" id="svg_110"/>
  <path d="m32,55l1,1l-1,-1z" fill="#2232c9" id="svg_111"/>
  <path d="m40,55l1,1l-1,-1z" fill="#37c4aa" id="svg_112"/>
  <path d="m77,55l1,1l-1,-1m24,0l1,1l-1,-1m-62,1l1,1l-1,-1m23,0l0,2l2,-2l-2,0z" fill="#af4b58" id="svg_113"/>
  <path d="m70,56l1,1l-1,-1z" fill="#37c4aa" id="svg_114"/>
  <path d="m76,56l1,1l-1,-1m8,0l1,1l-1,-1m18,0l1,1l-1,-1m7,1l0,1l2,1l1,0l-1,-3l-2,1z" fill="#af4b58" id="svg_115"/>
  <path d="m38,57l1,1l-1,-1z" fill="#37c4aa" id="svg_116"/>
  <path d="m40,57l-1,2l1,-2m35,0l1,1l-1,-1m8,0l1,1l-1,-1m20,0l-1,6c2.22,-2.22 2.78,-3.34 1,-6z" fill="#af4b58" id="svg_117"/>
  <path d="m110,57l1,1l-1,-1z" fill="#050404" id="svg_118"/>
  <path d="m37,58l1,1l-1,-1z" fill="#2232c9" id="svg_119"/>
  <path d="m61,58l1,1l-1,-1m13,0l1,1l-1,-1z" fill="#af4b58" id="svg_120"/>
  <path d="m82,58l1,1l-1,-1z" fill="#2232c9" id="svg_121"/>
  <path d="m99.33,58.67l0.34,0.66l-0.34,-0.66z" fill="#af4b58" id="svg_122"/>
  <path d="m36,59l1,1l-1,-1z" fill="#2232c9" id="svg_123"/>
  <path d="m60,59l1,1l-1,-1m13,0l1,1l-1,-1m8,0l1,1l-1,-1z" fill="#af4b58" id="svg_124"/>
  <path d="m100,59l1,1l-1,-1z" fill="#e2e4e2" id="svg_125"/>
  <path d="m35,60l1,1l-1,-1z" fill="#af4b58" id="svg_126"/>
  <path d="m58,60l1,1l-1,-1z" fill="#2232c9" id="svg_127"/>
  <path d="m59,60l1,1l-1,-1z" fill="#af4b58" id="svg_128"/>
  <path d="m67.33,60.67l0.34,0.66l-0.34,-0.66z" fill="#2232c9" id="svg_129"/>
  <path d="m70,60l1,1l-1,-1z" fill="#e2e4e2" id="svg_130"/>
  <path d="m72,60l1,1l-1,-1z" fill="#af4b58" id="svg_131"/>
  <path d="m80,60l1,1l-1,-1z" fill="#2232c9" id="svg_132"/>
  <path d="m111,60l1,1l-1,-1z" fill="#af4b58" id="svg_133"/>
  <path d="m34,61l1,1l-1,-1z" fill="#37c4aa" id="svg_134"/>
  <path d="m36,61l-1,2l1,-2m22,0l1,1l-1,-1z" fill="#af4b58" id="svg_135"/>
  <path d="m66,61l1,1l-1,-1z" fill="#050404" id="svg_136"/>
  <path d="m71,61l1,1l-1,-1z" fill="#af4b58" id="svg_137"/>
  <path d="m79,61l1,1l-1,-1z" fill="#37c4aa" id="svg_138"/>
  <path d="m110,61l1,1l-1,-1z" fill="#af4b58" id="svg_139"/>
  <path d="m115,61l1,1l-1,-1m-82,1l1,1l-1,-1z" fill="#37c4aa" id="svg_140"/>
  <path d="m56,62l0,2l2,-2l-2,0z" fill="#af4b58" id="svg_141"/>
  <path d="m64,62l1,1l-1,-1z" fill="#37c4aa" id="svg_142"/>
  <path d="m65,62l1,1l-1,-1z" fill="#2232c9" id="svg_143"/>
  <path d="m66,62l1,1l-1,-1z" fill="#37c4aa" id="svg_144"/>
  <path d="m70,62l1,1l-1,-1z" fill="#af4b58" id="svg_145"/>
  <path d="m78,62l1,1l-1,-1z" fill="#2232c9" id="svg_146"/>
  <path d="m109,62l1,1l-1,-1z" fill="#af4b58" id="svg_147"/>
  <path d="m115,62l5,4l0,-1l-5,-3z" fill="#2232c9" id="svg_148"/>
  <path d="m116,62l1,1l-1,-1m-84,1l1,1l-1,-1z" fill="#af4b58" id="svg_149"/>
  <path d="m64,63l-2,3l2,-3z" fill="#050404" id="svg_150"/>
  <path d="m65,63l1,1l-1,-1z" fill="#e2e4e2" id="svg_151"/>
  <path d="m69,63l1,1l-1,-1m8,0l1,1l-1,-1m24,0l1,1l-1,-1z" fill="#af4b58" id="svg_152"/>
  <path d="m108,63l1,1l-1,-1z" fill="#2232c9" id="svg_153"/>
  <path d="m110,68l6,-4l-6,4m-79,-4l1,1l-1,-1m2,0l-2,3l2,-3z" fill="#af4b58" id="svg_154"/>
  <path d="m54,64l1,1l-1,-1z" fill="#2232c9" id="svg_155"/>
  <path d="m55,64l1,1l-1,-1z" fill="#af4b58" id="svg_156"/>
  <path d="m64,64l1,1l-1,-1z" fill="#37c4aa" id="svg_157"/>
  <path d="m68,64l1,1l-1,-1z" fill="#af4b58" id="svg_158"/>
  <path d="m76,64l1,1l-1,-1m23,0l1,1l-1,-1z" fill="#2232c9" id="svg_159"/>
  <path d="m100,64l1,1l-1,-1z" fill="#af4b58" id="svg_160"/>
  <path d="m107,64l1,1l-1,-1z" fill="#2232c9" id="svg_161"/>
  <path d="m22,65l1,1l-1,-1z" fill="#2232c9" id="svg_163"/>
  <path d="m54,65l1,1l-1,-1z" fill="#af4b58" id="svg_164"/>
  <path d="m63,65l1,1l-1,-1z" fill="#37c4aa" id="svg_165"/>
  <path d="m67,65l1,1l-1,-1z" fill="#2232c9" id="svg_166"/>
  <path d="m75,65l1,1l-1,-1z" fill="#37c4aa" id="svg_167"/>
  <path d="m94,65l1,1l-1,-1z" fill="#e2e4e2" id="svg_168"/>
  <path d="m99,65l1,1l-1,-1m7,0l1,1l-1,-1z" fill="#af4b58" id="svg_169"/>
  <path d="m118,65l2,2l-2,-2z" fill="#050404" id="svg_170"/>
  <path d="m29,66l1,1l-1,-1z" fill="#37c4aa" id="svg_171"/>
  <path d="m52,66l0,2l2,-2l-2,0m9,0l1,1l-1,-1z" fill="#af4b58" id="svg_172"/>
  <path d="m62,66l1,1l-1,-1z" fill="#2232c9" id="svg_173"/>
  <path d="m64,69l4,-2l-4,2z" fill="#af4b58" id="svg_174"/>
  <path d="m74,66l1,1l-1,-1z" fill="#2232c9" id="svg_175"/>
  <path d="m94,66l1,1l-1,-1z" fill="#37c4aa" id="svg_176"/>
  <path d="m98,66l1,1l-1,-1m7,0l1,1l-1,-1z" fill="#af4b58" id="svg_177"/>
  <path d="m110,66l1,1l-1,-1z" fill="#2232c9" id="svg_178"/>
  <path d="m118,66l1,1l-1,-1z" fill="#af4b58" id="svg_179"/>
  <path d="m120,66l1,1l-1,-1z" fill="#37c4aa" id="svg_180"/>
  <path d="m20,67l1,1l-1,-1z" fill="#2232c9" id="svg_181"/>
  <path d="m28,67l1,1l-1,-1z" fill="#37c4aa" id="svg_182"/>
  <path d="m60,67l-1,2l1,-2z" fill="#050404" id="svg_183"/>
  <path d="m64,67l1,1l-1,-1z" fill="#2232c9" id="svg_184"/>
  <path d="m73,67l1,1l-1,-1z" fill="#af4b58" id="svg_185"/>
  <path d="m96,67l1,1l-1,-1z" fill="#2232c9" id="svg_186"/>
  <path d="m97,67l1,1l-1,-1m7,0l1,1l-1,-1m15,0l2,2l-2,-2z" fill="#af4b58" id="svg_187"/>
  <path d="m120,67l3,3l-3,-3m-93,1l1,1l-1,-1z" fill="#2232c9" id="svg_188"/>
  <path d="m29,68l-3,4l3,-4m22,0l1,1l-1,-1z" fill="#af4b58" id="svg_189"/>
  <path d="m58,68l1,1l-1,-1m2,0l1,1l-1,-1z" fill="#37c4aa" id="svg_190"/>
  <path d="m72,68l1,1l-1,-1z" fill="#2232c9" id="svg_191"/>
  <path d="m95,68l-7,7l0,1l9,-8l-2,0m8,0l-1,2l1,-2z" fill="#af4b58" id="svg_192" transform="matrix(1 0 0 1 0 0)"/>
  <path d="m108,68l1,1l-1,-1z" fill="#2232c9" id="svg_193"/>
  <path d="m109,68l1,1l-1,-1z" fill="#37c4aa" id="svg_194"/>
  <path d="m26,69l1,1l-1,-1m24,0l1,1l-1,-1z" fill="#af4b58" id="svg_195"/>
  <path d="m59,69l1,1l-1,-1z" fill="#e2e4e2" id="svg_196"/>
  <path d="m63,69l-3,3l0,1l3,-4z" fill="#af4b58" id="svg_197"/>
  <path d="m71,69l1,1l-1,-1z" fill="#37c4aa" id="svg_198"/>
  <path d="m94,69l1,1l-1,-1m9,0l1,1l-1,-1z" fill="#2232c9" id="svg_199"/>
  <path d="m108,69l1,1l-1,-1z" fill="#37c4aa" id="svg_200"/>
  <path d="m25,70l1,1l-1,-1m24,0l1,1l-1,-1z" fill="#af4b58" id="svg_201"/>
  <path d="m57,70l1,1l-1,-1m5,0l1,1l-1,-1m8,0l1,1l-1,-1z" fill="#2232c9" id="svg_202"/>
  <path d="m101,70l1,1l-1,-1z" fill="#af4b58" id="svg_203"/>
  <path d="m106,70l1,1l-1,-1z" fill="#2232c9" id="svg_204"/>
  <path d="m107,70l1,1l-1,-1m8.67,0.33l0.66,0.34l-0.66,-0.34m-91.67,0.67l1,1l-1,-1m24,0l1,1l-1,-1z" fill="#af4b58" id="svg_205"/>
  <path d="m61,71l1,1l-1,-1z" fill="#2232c9" id="svg_206"/>
  <path d="m69,71l1,1l-1,-1z" fill="#37c4aa" id="svg_207"/>
  <path d="m100,71l-5,6l5,-6z" fill="#af4b58" id="svg_208"/>
  <path d="m104,71l1,1l-1,-1z" fill="#e2e4e2" id="svg_209"/>
  <path d="m106,71l1,1l-1,-1z" fill="#af4b58" id="svg_210"/>
  <path d="m114,71l1,1l-1,-1z" fill="#2232c9" id="svg_211"/>
  <path d="m117,71l2,2l-2,-2z" fill="#37c4aa" id="svg_213"/>
  <path d="m123,71l1,1l-1,-1z" fill="#af4b58" id="svg_214"/>
  <path d="m23,72l1,1l-1,-1z" fill="#2232c9" id="svg_215"/>
  <path d="m25,72l1,1l-1,-1z" fill="#e2e4e2" id="svg_216"/>
  <path d="m47,72l1,1l-1,-1z" fill="#af4b58" id="svg_217"/>
  <path d="m54,72l1,1l-1,-1z" fill="#37c4aa" id="svg_218"/>
  <path d="m55,72l1,1l-1,-1z" fill="#2232c9" id="svg_219"/>
  <path d="m68,72l1,1l-1,-1z" fill="#af4b58" id="svg_220"/>
  <path d="m91,72l1,1l-1,-1z" fill="#2232c9" id="svg_221"/>
  <path d="m101,72l1,1l-1,-1z" fill="#e2e4e2" id="svg_223"/>
  <path d="m103,72l-2,4l4,-4l-2,0z" fill="#2232c9" id="svg_224"/>
  <path d="m105,72l1,1l-1,-1m7,0l1,1l-1,-1m2,0l1,1l-1,-1z" fill="#af4b58" id="svg_225"/>
  <path d="m117,72l1,1l-1,-1z" fill="#2232c9" id="svg_226"/>
  <path d="m126,72l1,1l-1,-1z" fill="#37c4aa" id="svg_227"/>
  <path d="m22,73l1,1l-1,-1z" fill="#2232c9" id="svg_228"/>
  <path d="m46,73l1,1l-1,-1z" fill="#af4b58" id="svg_229"/>
  <path d="m54,73l1,1l-1,-1z" fill="#050404" id="svg_230"/>
  <path d="m59,73l1,1l-1,-1z" fill="#af4b58" id="svg_231"/>
  <path d="m67,73l1,1l-1,-1z" fill="#37c4aa" id="svg_232"/>
  <path d="m90,73l1,1l-1,-1z" fill="#2232c9" id="svg_233"/>
  <path d="m100,73l1,1l-1,-1m2,0l1,1l-1,-1z" fill="#37c4aa" id="svg_234"/>
  <path d="m111,73l1,1l-1,-1m2,0l1,1l-1,-1z" fill="#af4b58" id="svg_235"/>
  <path d="m126,73l1,1l-1,-1m-105,1l1,1l-1,-1z" fill="#2232c9" id="svg_236"/>
  <path d="m44,74l0,2l2,-2l-2,0z" fill="#af4b58" id="svg_237"/>
  <path d="m52,74l1,1l-1,-1z" fill="#37c4aa" id="svg_238"/>
  <path d="m53,74l1,1l-1,-1z" fill="#2232c9" id="svg_239"/>
  <path d="m58,74l1,1l-1,-1z" fill="#af4b58" id="svg_241"/>
  <path d="m66,74l1,1l-1,-1z" fill="#2232c9" id="svg_242"/>
  <path d="m99,74l1,1l-1,-1z" fill="#e2e4e2" id="svg_243"/>
  <path d="m101,74l1,1l-1,-1z" fill="#37c4aa" id="svg_244"/>
  <path d="m103,74l1,1l-1,-1z" fill="#af4b58" id="svg_245"/>
  <path d="m110,74l1,1l-1,-1z" fill="#2232c9" id="svg_246"/>
  <path d="m120,74l1,1l-1,-1z" fill="#af4b58" id="svg_247"/>
  <path d="m128,74l1,1l-1,-1z" fill="#37c4aa" id="svg_248"/>
  <path d="m20,75l1,1l-1,-1z" fill="#2232c9" id="svg_249"/>
  <path d="m57,75l1,1l-1,-1m8,0l1,1l-1,-1z" fill="#af4b58" id="svg_250"/>
  <path d="m100,75l-1,2l2,0l-1,-2z" fill="#37c4aa" id="svg_251"/>
  <path d="m102,75l1,1l-1,-1z" fill="#af4b58" id="svg_252"/>
  <path d="m109,75l1,1l-1,-1m12,0l1,1l-1,-1z" fill="#37c4aa" id="svg_253"/>
  <path d="m19,76l1,1l-1,-1z" fill="#2232c9" id="svg_254"/>
  <path d="m43,76l1,1l-1,-1z" fill="#af4b58" id="svg_255"/>
  <path d="m50,76l1,1l-1,-1z" fill="#37c4aa" id="svg_256"/>
  <path d="m51.33,76.67l0.34,0.66l-0.34,-0.66z" fill="#2232c9" id="svg_257"/>
  <path d="m56,76l1,1l-1,-1z" fill="#af4b58" id="svg_258"/>
  <path d="m64,76l1,1l-1,-1z" fill="#2232c9" id="svg_259"/>
  <path d="m87,76l-2,4l2,-4z" fill="#af4b58" id="svg_260"/>
  <path d="m108,76l1,1l-1,-1z" fill="#2232c9" id="svg_261"/>
  <path d="m122,76l1,1l-1,-1z" fill="#af4b58" id="svg_262"/>
  <path d="m129,76l2,2l-2,-2z" fill="#2232c9" id="svg_263"/>
  <path d="m130,76l1,1l-1,-1z" fill="#37c4aa" id="svg_264"/>
  <path d="m18,77l1,1l-1,-1z" fill="#2232c9" id="svg_265"/>
  <path d="m42,77l1,1l-1,-1m13,0l1,1l-1,-1m8,0l1,1l-1,-1z" fill="#af4b58" id="svg_266"/>
  <path d="m86,77l1,1l-1,-1m8,0l1,1l-1,-1z" fill="#2232c9" id="svg_267"/>
  <path d="m96,77l1,1l-1,-1z" fill="#e2e4e2" id="svg_268"/>
  <path d="m99,77l-1,2l1,-2z" fill="#2232c9" id="svg_269"/>
  <path d="m107,77l1,1l-1,-1z" fill="#37c4aa" id="svg_270"/>
  <path d="m123,77l1,1l-1,-1z" fill="#af4b58" id="svg_271"/>
  <path d="m17,78l1,1l-1,-1z" fill="#2232c9" id="svg_272"/>
  <path d="m40,78l0,2l2,-2l-2,0z" fill="#af4b58" id="svg_273"/>
  <path d="m49.33,78.67l0.34,0.66l-0.34,-0.66z" fill="#2232c9" id="svg_274"/>
  <path d="m52,78l1,1l-1,-1z" fill="#e2e4e2" id="svg_276"/>
  <path d="m54,78l1,1l-1,-1z" fill="#af4b58" id="svg_277"/>
  <path d="m62,78l1,1l-1,-1z" fill="#2232c9" id="svg_278"/>
  <path d="m99,78l1,1l-1,-1z" fill="#af4b58" id="svg_279"/>
  <path d="m106,78l1,1l-1,-1z" fill="#37c4aa" id="svg_280"/>
  <path d="m124,78l1,1l-1,-1z" fill="#af4b58" id="svg_281"/>
  <path d="m131,78l1,1l-1,-1z" fill="#2232c9" id="svg_282"/>
  <path d="m132,78l1,1l-1,-1z" fill="#af4b58" id="svg_283"/>
  <path d="m16,79l1,1l-1,-1z" fill="#37c4aa" id="svg_284"/>
  <path d="m18,79l1,1l-1,-1z" fill="#af4b58" id="svg_285"/>
  <path d="m20,79l1,1l-1,-1z" fill="#e2e4e2" id="svg_286"/>
  <path d="m53,79l1,1l-1,-1m8,0l1,1l-1,-1m37,0l1,1l-1,-1z" fill="#af4b58" id="svg_287"/>
  <path d="m6,80l1,1l-1,-1z" fill="#e2e4e2" id="svg_288"/>
  <path d="m15,80l1,1l-1,-1z" fill="#2232c9" id="svg_289"/>
  <path d="m19,80l1,1l-1,-1z" fill="#e2e4e2" id="svg_290"/>
  <path d="m38,80l0,2l2,-2l-2,0z" fill="#af4b58" id="svg_291" transform="matrix(1 0 0 1 0 0)"/>
  <path d="m46,80l1,1l-1,-1z" fill="#37c4aa" id="svg_292" transform="matrix(1 0 0 1 0 0)"/>
  <path d="m47,80l1,1l-1,-1z" fill="#2232c9" id="svg_293"/>
  <path d="m48,80l1,1l-1,-1z" fill="#37c4aa" id="svg_294"/>
  <path d="m52,80l1,1l-1,-1z" fill="#af4b58" id="svg_295"/>
  <path d="m60,80l1,1l-1,-1z" fill="#2232c9" id="svg_296"/>
  <path d="m84,80l1,1l-1,-1z" fill="#af4b58" id="svg_297"/>
  <path d="m91.67,80.33l0.66,0.34l-0.66,-0.34z" fill="#2232c9" id="svg_298"/>
  <path d="m96.67,80.33l0.66,0.34l-0.66,-0.34z" fill="#af4b58" id="svg_299"/>
  <path d="m104,80l1,1l-1,-1z" fill="#37c4aa" id="svg_300"/>
  <path d="m132,80l1,3l1,0l1,-3l-3,0z" fill="#af4b58" id="svg_301"/>
  <path d="m14,81l2,2l-2,-2z" fill="#2232c9" id="svg_302"/>
  <path d="m19,81l1,1l-1,-1z" fill="#37c4aa" id="svg_303"/>
  <path d="m47,81l1,1l-1,-1z" fill="#e2e4e2" id="svg_304"/>
  <path d="m51,81l1,1l-1,-1m8,0l1,1l-1,-1m23.67,0.33l0.66,0.34l-0.66,-0.34z" fill="#af4b58" id="svg_305"/>
  <path d="m90,81l1,1l-1,-1z" fill="#2232c9" id="svg_306"/>
  <path d="m94,81l1,1l-1,-1z" fill="#37c4aa" id="svg_307"/>
  <path d="m95,81l1,1l-1,-1z" fill="#2232c9" id="svg_308"/>
  <path d="m122,81l1,1l-1,-1z" fill="#af4b58" id="svg_309"/>
  <path d="m123,81l1,1l-1,-1z" fill="#e2e4e2" id="svg_310"/>
  <path d="m125,81l0,3l2,-3l-2,0z" fill="#af4b58" id="svg_311"/>
  <path d="m14,82l1,1l-1,-1z" fill="#37c4aa" id="svg_312"/>
  <path d="m16,82l1,1l-1,-1z" fill="#e2e4e2" id="svg_313"/>
  <path d="m37,82l1,1l-1,-1m13,0l1,1l-1,-1z" fill="#af4b58" id="svg_314"/>
  <path d="m58,82l1,1l-1,-1z" fill="#2232c9" id="svg_315"/>
  <path d="m81.33,82.67l0.34,0.66l-0.34,-0.66z" fill="#af4b58" id="svg_316"/>
  <path d="m89,82l1,1l-1,-1z" fill="#37c4aa" id="svg_317"/>
  <path d="m94.67,82.33l0.66,0.34l-0.66,-0.34z" fill="#af4b58" id="svg_318"/>
  <path d="m102,82l1,1l-1,-1z" fill="#37c4aa" id="svg_319"/>
  <path d="m8,83l1,1l-1,-1z" fill="#2232c9" id="svg_320"/>
  <path d="m15,83l1,1l-1,-1z" fill="#af4b58" id="svg_321"/>
  <path d="m17,83l1,1l-1,-1z" fill="#2232c9" id="svg_322"/>
  <path d="m34,83l1,1l-1,-1z" fill="#e2e4e2" id="svg_323"/>
  <path d="m36,83l1,1l-1,-1z" fill="#af4b58" id="svg_324"/>
  <path d="m49,83l1,1l-1,-1z" fill="#2232c9" id="svg_325"/>
  <path d="m57,83l1,1l-1,-1m31.67,0.33l0.66,0.34l-0.66,-0.34z" fill="#af4b58" id="svg_326"/>
  <path d="m90,83l1,1l-1,-1z" fill="#e2e4e2" id="svg_327"/>
  <path d="m101,83l1,1l-1,-1m-91,1l1,1l-1,-1m6,0l1,1l-1,-1z" fill="#af4b58" id="svg_328"/>
  <path d="m18,84l1,1l-1,-1z" fill="#e2e4e2" id="svg_329"/>
  <path d="m34,84l0,2l2,-2l-2,0z" fill="#af4b58" id="svg_330"/>
  <path d="m42,84l1,1l-1,-1z" fill="#37c4aa" id="svg_331"/>
  <path d="m43,84l1,1l-1,-1z" fill="#2232c9" id="svg_332"/>
  <path d="m48.67,84.33l0.66,0.34l-0.66,-0.34z" fill="#af4b58" id="svg_333"/>
  <path d="m56,84l1,1l-1,-1z" fill="#2232c9" id="svg_334"/>
  <path d="m80,84l1,1l-1,-1m7,0l1,1l-1,-1m5,0l0,2l2,-2l-2,0m8,0l1,1l-1,-1z" fill="#af4b58" id="svg_335"/>
  <path d="m124,84l1,1l-1,-1z" fill="#2232c9" id="svg_336"/>
  <path d="m131,84l1,1l-1,-1z" fill="#37c4aa" id="svg_337"/>
  <path d="m17,85l1,1l-1,-1z" fill="#af4b58" id="svg_338"/>
  <path d="m43,85l1,1l-1,-1z" fill="#e2e4e2" id="svg_339"/>
  <path d="m46.67,85.33l0.66,0.34l-0.66,-0.34m8.33,-0.33l1,1l-1,-1m23.67,0.33l0.66,0.34l-0.66,-0.34z" fill="#af4b58" id="svg_340"/>
  <path d="m90.67,85.33l0.66,0.34l-0.66,-0.34m32.33,-0.33l1,1l-1,-1z" fill="#2232c9" id="svg_341"/>
  <path d="m130,85l1,1l-1,-1z" fill="#37c4aa" id="svg_342"/>
  <path d="m11,86l1,1l-1,-1z" fill="#2232c9" id="svg_343"/>
  <path d="m33,86l1,1l-1,-1z" fill="#af4b58" id="svg_344"/>
  <path d="m44,86l1,1l-1,-1z" fill="#e2e4e2" id="svg_345"/>
  <path d="m45.33,86.67l0.34,0.66l-0.34,-0.66z" fill="#af4b58" id="svg_346"/>
  <path d="m54,86l1,1l-1,-1z" fill="#2232c9" id="svg_347"/>
  <path d="m77.33,86.67l0.34,0.66l-0.34,-0.66z" fill="#af4b58" id="svg_348"/>
  <path d="m85,86l1,1l-1,-1z" fill="#37c4aa" id="svg_349"/>
  <path d="m86,86l1,1l-1,-1z" fill="#2232c9" id="svg_350"/>
  <path d="m89.67,86.33l0.66,0.34l-0.66,-0.34m8.33,-0.33l1,1l-1,-1z" fill="#37c4aa" id="svg_351"/>
  <path d="m122,86l1,1l-1,-1z" fill="#af4b58" id="svg_352"/>
  <path d="m129,86l1,1l-1,-1z" fill="#37c4aa" id="svg_353"/>
  <path d="m32,87l1,1l-1,-1m21,0l1,1l-1,-1z" fill="#af4b58" id="svg_354"/>
  <path d="m84,87l1,1l-1,-1z" fill="#2232c9" id="svg_355"/>
  <path d="m86,87l1,1l-1,-1z" fill="#e2e4e2" id="svg_356"/>
  <path d="m89,87l1,1l-1,-1z" fill="#2232c9" id="svg_357"/>
  <path d="m97,87l1,1l-1,-1z" fill="#37c4aa" id="svg_358"/>
  <path d="m121,87l1,1l-1,-1z" fill="#2232c9" id="svg_359"/>
  <path d="m128,87l1,1l-1,-1z" fill="#37c4aa" id="svg_360"/>
  <path d="m20,88l1,1l-1,-1m11,0l-2,3l2,-3z" fill="#af4b58" id="svg_361"/>
  <path d="m39,88l1,1l-1,-1z" fill="#2232c9" id="svg_362"/>
  <path d="m44,88l1,1l-1,-1m8,0l1,1l-1,-1m22,2l3,-2l-3,2m9,-2l-1,2l1,-2m5,0l0,2l2,-2l-2,0m8,0l1,1l-1,-1m24,0l1,1l-1,-1z" fill="#af4b58" id="svg_363"/>
  <path d="m127,88l1,1l-1,-1z" fill="#37c4aa" id="svg_364"/>
  <path d="m14,89l1,1l-1,-1z" fill="#2232c9" id="svg_365"/>
  <path d="m21,89l1,1l-1,-1m22,0l1,1l-1,-1z" fill="#af4b58" id="svg_366"/>
  <path d="m51,89l1,1l-1,-1z" fill="#37c4aa" id="svg_367"/>
  <path d="m83,89l1,1l-1,-1m2,2l3,-1l-3,1m33,-2l1,1l-1,-1z" fill="#2232c9" id="svg_368"/>
  <path d="m119,89l1,1l-1,-1z" fill="#af4b58" id="svg_369"/>
  <path d="m15,90l1,1l-1,-1z" fill="#2232c9" id="svg_370"/>
  <path d="m22,90l1,1l-1,-1z" fill="#af4b58" id="svg_371"/>
  <path d="m24,90l1,1l-1,-1z" fill="#37c4aa" id="svg_372"/>
  <path d="m42,90l1,1l-1,-1m8,0l1,1l-1,-1m23,0l-3,3l0,1l3,-4z" fill="#af4b58" id="svg_373"/>
  <path d="m81,90l1,1l-1,-1z" fill="#37c4aa" id="svg_374"/>
  <path d="m86,90l1,1l-1,-1z" fill="#af4b58" id="svg_375"/>
  <path d="m94,90l1,1l-1,-1z" fill="#37c4aa" id="svg_376"/>
  <path d="m118,90l1,1l-1,-1z" fill="#af4b58" id="svg_377"/>
  <path d="m126,90l1,1l-1,-1m-110,1l1,1l-1,-1z" fill="#2232c9" id="svg_378"/>
  <path d="m23,91l1,1l-1,-1z" fill="#af4b58" id="svg_379"/>
  <path d="m25,91l1,1l-1,-1z" fill="#37c4aa" id="svg_380"/>
  <path d="m28,91l1,1l-1,-1m13,0l1,1l-1,-1z" fill="#af4b58" id="svg_381"/>
  <path d="m72,91l1,1l-1,-1m8,0l1,1l-1,-1m37,0l1,1l-1,-1m8,0l1,1l-1,-1m-108,1l1,1l-1,-1z" fill="#2232c9" id="svg_382"/>
  <path d="m24,92l0,1l4,0l0,-1l-4,0z" fill="#af4b58" id="svg_383"/>
  <path d="m25,92l1,1l-1,-1z" fill="#2232c9" id="svg_384"/>
  <path d="m26,92l1,1l-1,-1z" fill="#e2e4e2" id="svg_385"/>
  <path d="m39,92l0,2l2,-2l-2,0m9,0l1,1l-1,-1z" fill="#af4b58" id="svg_386"/>
  <path d="m79,92l1,1l-1,-1z" fill="#2232c9" id="svg_387"/>
  <path d="m83,94l3,-2l-3,2z" fill="#af4b58" id="svg_388"/>
  <path d="m92,92l1,1l-1,-1z" fill="#37c4aa" id="svg_389"/>
  <path d="m114,92l1,1l-1,-1z" fill="#2232c9" id="svg_390"/>
  <path d="m116,92l1,1l-1,-1z" fill="#af4b58" id="svg_391"/>
  <path d="m18,93l1,1l-1,-1z" fill="#2232c9" id="svg_392"/>
  <path d="m47,93l1,1l-1,-1m31.67,0.33l0.66,0.34l-0.66,-0.34z" fill="#af4b58" id="svg_393"/>
  <path d="m82,93l1,1l-1,-1m9,0l1,1l-1,-1z" fill="#37c4aa" id="svg_394"/>
  <path d="m115,93l1,1l-1,-1z" fill="#af4b58" id="svg_395"/>
  <path d="m20,94l1,1l-1,-1m12,0l1,1l-1,-1z" fill="#37c4aa" id="svg_396"/>
  <path d="m37,94l0,2l2,-2l-2,0z" fill="#af4b58" id="svg_397"/>
  <path d="m46,94l1,1l-1,-1z" fill="#2232c9" id="svg_398"/>
  <path d="m69,94l-4,6l4,-6z" fill="#af4b58" id="svg_399"/>
  <path d="m77,94l1,1l-1,-1z" fill="#2232c9" id="svg_400"/>
  <path d="m81,94l1,1l-1,-1z" fill="#37c4aa" id="svg_401"/>
  <path d="m90,94l1,1l-1,-1z" fill="#2232c9" id="svg_402"/>
  <path d="m114,94l1,1l-1,-1z" fill="#af4b58" id="svg_403"/>
  <path d="m121,94l1,1l-1,-1z" fill="#37c4aa" id="svg_404"/>
  <path d="m45,95l1,1l-1,-1z" fill="#af4b58" id="svg_405"/>
  <path d="m68,95l1,1l-1,-1m8,0l1,1l-1,-1m5,0l-1,2l1,-2z" fill="#2232c9" id="svg_406"/>
  <path d="m89,95l1,1l-1,-1z" fill="#37c4aa" id="svg_407"/>
  <path d="m113,95l1,1l-1,-1z" fill="#af4b58" id="svg_408"/>
  <path d="m120,95l1,1l-1,-1z" fill="#37c4aa" id="svg_409"/>
  <path d="m32,101l5,-5l-5,5z" fill="#af4b58" id="svg_410"/>
  <path d="m44,96l1,1l-1,-1z" fill="#2232c9" id="svg_411"/>
  <path d="m75,96l1,1l-1,-1m6,0l1,1l-1,-1z" fill="#af4b58" id="svg_412"/>
  <path d="m88,96l1,1l-1,-1z" fill="#37c4aa" id="svg_413"/>
  <path d="m110,96l1,1l-1,-1z" fill="#2232c9" id="svg_414"/>
  <path d="m112,96l1,1l-1,-1z" fill="#af4b58" id="svg_415"/>
  <path d="m119,96l1,1l-1,-1z" fill="#37c4aa" id="svg_416"/>
  <path d="m22,97l1,1l-1,-1z" fill="#2232c9" id="svg_417"/>
  <path d="m43,97l1,1l-1,-1m37,0l1,1l-1,-1m31,0l1,1l-1,-1m9,0l1,1l-1,-1m-96.67,1.67l0.34,0.66l-0.34,-0.66z" fill="#af4b58" id="svg_418"/>
  <path d="m28,98l1,1l-1,-1z" fill="#37c4aa" id="svg_419"/>
  <path d="m29,98l1,1l-1,-1m13,0l1,1l-1,-1m31.67,0.33l0.66,0.34l-0.66,-0.34m3.33,-0.33l1,1l-1,-1z" fill="#2232c9" id="svg_420"/>
  <path d="m78,98l1,1l-1,-1z" fill="#af4b58" id="svg_421"/>
  <path d="m86,98l1,1l-1,-1z" fill="#37c4aa" id="svg_422"/>
  <path d="m110,98l1,1l-1,-1z" fill="#af4b58" id="svg_423"/>
  <path d="m118,98l1,1l-1,-1m-86,1l1,1l-1,-1m9,0l1,1l-1,-1m23,0l1,1l-1,-1m8,0l1,1l-1,-1z" fill="#2232c9" id="svg_424"/>
  <path d="m109,99l1,1l-1,-1z" fill="#af4b58" id="svg_425"/>
  <path d="m25,100l1,1l-1,-1z" fill="#2232c9" id="svg_426"/>
  <path d="m26.67,100.33l0.66,0.34l-0.66,-0.34z" fill="#37c4aa" id="svg_427"/>
  <path d="m40,100l1,1l-1,-1z" fill="#2232c9" id="svg_428"/>
  <path d="m44,100l-3,4l3,-4z" fill="#e2e4e2" id="svg_429"/>
  <path d="m63,100l-3,3l0,1l3,-4m8,0l1,1l-1,-1m5.67,0.33l0.66,0.34l-0.66,-0.34z" fill="#af4b58" id="svg_430"/>
  <path d="m84,100l1,1l-1,-1z" fill="#37c4aa" id="svg_431"/>
  <path d="m108,100l1,1l-1,-1z" fill="#af4b58" id="svg_432"/>
  <path d="m27,101l1,1l-1,-1z" fill="#e2e4e2" id="svg_433"/>
  <path d="m31,101l1,1l-1,-1z" fill="#af4b58" id="svg_434"/>
  <path d="m39,101l1,1l-1,-1z" fill="#37c4aa" id="svg_435"/>
  <path d="m44,101l1,1l-1,-1m18,0l1,1l-1,-1m8,0l1,1l-1,-1m5,0l1,1l-1,-1z" fill="#2232c9" id="svg_436"/>
  <path d="m83,101l1,1l-1,-1m24,0l1,1l-1,-1m-77,1l1,1l-1,-1z" fill="#af4b58" id="svg_437"/>
  <path d="m37,102l1,1l-1,-1z" fill="#37c4aa" id="svg_438"/>
  <path d="m38,102l1,1l-1,-1z" fill="#2232c9" id="svg_439"/>
  <path d="m43,102l1,1l-1,-1z" fill="#37c4aa" id="svg_440"/>
  <path d="m69,102l1,1l-1,-1m5,0l0,2l2,-2l-2,0m8,0l1,1l-1,-1m24,0l1,1l-1,-1z" fill="#af4b58" id="svg_441"/>
  <path d="m36,103l1,1l-1,-1m32,0l1,1l-1,-1z" fill="#37c4aa" id="svg_442"/>
  <path d="m73,103l1,1l-1,-1z" fill="#2232c9" id="svg_443"/>
  <path d="m105,103l1,1l-1,-1m-78,1l2,2l-2,-2m3,0l1,1l-1,-1z" fill="#af4b58" id="svg_444"/>
  <path d="m55,104l1,1l-1,-1z" fill="#e2e4e2" id="svg_445"/>
  <path d="m59,104l-2,4l2,-4m8,0l1,1l-1,-1z" fill="#af4b58" id="svg_446"/>
  <path d="m71,104l1,1l-1,-1z" fill="#2232c9" id="svg_447"/>
  <path d="m72,104l1,1l-1,-1z" fill="#af4b58" id="svg_448"/>
  <path d="m80,104l1,1l-1,-1z" fill="#37c4aa" id="svg_449"/>
  <path d="m104,104l1,1l-1,-1z" fill="#af4b58" id="svg_450"/>
  <path d="m111,104l1,1l-1,-1z" fill="#37c4aa" id="svg_451"/>
  <path d="m30,105l1,1l-1,-1z" fill="#2232c9" id="svg_452"/>
  <path d="m37,105l1,1l-1,-1z" fill="#af4b58" id="svg_453"/>
  <path d="m53,105l-1,2l1,-2z" fill="#37c4aa" id="svg_454"/>
  <path d="m54,105l1,1l-1,-1m4,0l1,1l-1,-1m8,0l1,1l-1,-1z" fill="#2232c9" id="svg_455"/>
  <path d="m71,105l-1,3l1,-3z" fill="#af4b58" id="svg_456"/>
  <path d="m79,105l1,1l-1,-1z" fill="#37c4aa" id="svg_457"/>
  <path d="m103,105l1,1l-1,-1m7,0l1,1l-1,-1z" fill="#af4b58" id="svg_458"/>
  <path d="m31,106l1,1l-1,-1z" fill="#2232c9" id="svg_459"/>
  <path d="m38,106l1,1l-1,-1m2,0l2,2l-2,-2z" fill="#af4b58" id="svg_460"/>
  <path d="m53,106l1,1l-1,-1z" fill="#e2e4e2" id="svg_461"/>
  <path d="m65,106l1,1l-1,-1z" fill="#af4b58" id="svg_462"/>
  <path d="m69.33,106.67l0.34,0.66l-0.34,-0.66z" fill="#2232c9" id="svg_463"/>
  <path d="m78,106l1,1l-1,-1z" fill="#37c4aa" id="svg_464"/>
  <path d="m100,106l1,1l-1,-1z" fill="#2232c9" id="svg_465"/>
  <path d="m102,106l1,1l-1,-1z" fill="#af4b58" id="svg_466"/>
  <path d="m32,107l1,1l-1,-1z" fill="#2232c9" id="svg_467"/>
  <path d="m39,107l1,1l-1,-1z" fill="#af4b58" id="svg_468"/>
  <path d="m51.33,107.67l0.34,0.66l-0.34,-0.66z" fill="#37c4aa" id="svg_469"/>
  <path d="m64,107l1,1l-1,-1m37,0l1,1l-1,-1m-68,1l1,1l-1,-1m7,0l1,1l-1,-1z" fill="#af4b58" id="svg_470"/>
  <path d="m42,108l1,1l-1,-1m7,0l1,1l-1,-1z" fill="#2232c9" id="svg_471"/>
  <path d="m55,108l-3,5l5,-5l-2,0m8,0l1,1l-1,-1z" fill="#af4b58" id="svg_472"/>
  <path d="m67.33,108.67l0.34,0.66l-0.34,-0.66z" fill="#2232c9" id="svg_473"/>
  <path d="m68,108l1,1l-1,-1z" fill="#af4b58" id="svg_474"/>
  <path d="m76,108l1,1l-1,-1z" fill="#37c4aa" id="svg_475"/>
  <path d="m100,108l1,1l-1,-1z" fill="#af4b58" id="svg_476"/>
  <path d="m108,108l-1,2l1,-2m-74,1l1,1l-1,-1z" fill="#2232c9" id="svg_477"/>
  <path d="m41,109l1,1l-1,-1z" fill="#af4b58" id="svg_478"/>
  <path d="m47,109l3,2l0,-1l-3,-1m7,0l1,1l-1,-1m8,0l1,1l-1,-1z" fill="#2232c9" id="svg_479"/>
  <path d="m99,109l1,1l-1,-1m9,0l1,1l-1,-1m-73,1l1,1l-1,-1z" fill="#af4b58" id="svg_480"/>
  <path d="m52.33,110.67l0.34,0.66l-0.34,-0.66m8.67,-0.67l1,1l-1,-1m14,0l1,1l-1,-1z" fill="#2232c9" id="svg_481"/>
  <path d="m98,110l1,1l-1,-1z" fill="#af4b58" id="svg_482"/>
  <path d="m36,111l1,1l-1,-1z" fill="#2232c9" id="svg_483"/>
  <path d="m43,111l1,1l-1,-1z" fill="#af4b58" id="svg_484"/>
  <path d="m48.67,111.33l0.66,0.34l-0.66,-0.34z" fill="#37c4aa" id="svg_485"/>
  <path d="m60,111l1,1l-1,-1z" fill="#2232c9" id="svg_486"/>
  <path d="m68,111l1,1l-1,-1m7,0l2,2l-2,-2z" fill="#af4b58" id="svg_487"/>
  <path d="m76,111l1,1l-1,-1z" fill="#e2e4e2" id="svg_488"/>
  <path d="m97,111l1,1l-1,-1z" fill="#af4b58" id="svg_489"/>
  <path d="m105,111l1,1l-1,-1m-68,1l1,1l-1,-1m8,0l4,4l-4,-4z" fill="#2232c9" id="svg_490"/>
  <path d="m46,112l1,1l-1,-1z" fill="#37c4aa" id="svg_491"/>
  <path d="m51,112l1,1l-1,-1m18,0l1,1l-1,-1z" fill="#2232c9" id="svg_492"/>
  <path d="m78,112l1,1l-1,-1z" fill="#e2e4e2" id="svg_493"/>
  <path d="m96,112l1,1l-1,-1z" fill="#af4b58" id="svg_494"/>
  <path d="m47,113l1,1l-1,-1z" fill="#37c4aa" id="svg_495"/>
  <path d="m50,113l1,1l-1,-1m20,0l1,1l-1,-1m7,0l1,1l-1,-1z" fill="#2232c9" id="svg_496"/>
  <path d="m95,113l1,1l-1,-1z" fill="#af4b58" id="svg_497" transform="matrix(1 0 0 1 0 0)"/>
  <path d="m48,114l1,1l-1,-1z" fill="#37c4aa" id="svg_498"/>
  <path d="m49,114l0,2l2,-2l-2,0m8,0l1,1l-1,-1m14,0l1,1l-1,-1m7,0l1,1l-1,-1m16,0l1,1l-1,-1m-47,1l1,1l-1,-1m9,0l1,1l-1,-1m16,0l1,1l-1,-1z" fill="#af4b58" id="svg_499"/>
  <path d="m79,115l1,1l-1,-1z" fill="#2232c9" id="svg_500"/>
  <path d="m80.33,115.67l0.34,0.66l-0.34,-0.66m12.67,-0.67l1,1l-1,-1z" fill="#af4b58" id="svg_501"/>
  <path d="m101,115l1,1l-1,-1m-60,1l1,1l-1,-1z" fill="#2232c9" id="svg_502"/>
  <path d="m73,116l1,1l-1,-1m19,0l1,1l-1,-1z" fill="#af4b58" id="svg_503"/>
  <path d="m100,116l1,1l-1,-1m-46,1l1,1l-1,-1z" fill="#2232c9" id="svg_504"/>
  <path d="m74,117l1,1l-1,-1m7,0l2,2l-2,-2z" fill="#af4b58" id="svg_505"/>
  <path d="m82,117l1,1l-1,-1z" fill="#2232c9" id="svg_506"/>
  <path d="m91,117l1,1l-1,-1z" fill="#af4b58" id="svg_507"/>
  <path d="m53,118l1,1l-1,-1z" fill="#2232c9" id="svg_508"/>
  <path d="m57,118l1,1l-1,-1m16,0l1,1l-1,-1z" fill="#e2e4e2" id="svg_509"/>
  <path d="m75,118l1,1l-1,-1m15,0l1,1l-1,-1z" fill="#af4b58" id="svg_510"/>
  <path d="m52,119l1,1l-1,-1z" fill="#2232c9" id="svg_511"/>
  <path d="m55,119l-2,3l2,-3z" fill="#e2e4e2" id="svg_512"/>
  <path d="m76,119l1,1l-1,-1z" fill="#af4b58" id="svg_514"/>
  <path d="m83.67,119.33l0.66,0.34l-0.66,-0.34z" fill="#2232c9" id="svg_515"/>
  <path d="m89,119l1,1l-1,-1z" fill="#af4b58" id="svg_516"/>
  <path d="m77,120l1,1l-1,-1m7,0l1,1l-1,-1z" fill="#af4b58" id="svg_519"/>
  <path d="m85.67,120.33l0.66,0.34l-0.66,-0.34z" fill="#37c4aa" id="svg_520"/>
  <path d="m88,120l1,1l-1,-1z" fill="#af4b58" id="svg_521"/>
  <path d="m46,121l1,1l-1,-1z" fill="#2232c9" id="svg_522"/>
  <path d="m50,121l1,1l-1,-1z" fill="#af4b58" id="svg_523"/>
  <path d="m55,121l1,1l-1,-1z" fill="#37c4aa" id="svg_524"/>
  <path d="m78,121l1,1l-1,-1z" fill="#af4b58" id="svg_525"/>
  <path d="m85.67,121.33l0.66,0.34l-0.66,-0.34z" fill="#2232c9" id="svg_526"/>
  <path d="m87,121l1,1l-1,-1m-40,1l1,1l-1,-1z" fill="#af4b58" id="svg_527"/>
  <path d="m49,122l1,1l-1,-1z" fill="#2232c9" id="svg_528"/>
  <path d="m59,122l1,1l-1,-1z" fill="#2232c9" id="svg_530"/>
  <path d="m79,122l1,1l-1,-1z" fill="#af4b58" id="svg_531"/>
  <path d="m94,122l1,1l-1,-1z" fill="#2232c9" id="svg_532"/>
  <path d="m80,123l1,1l-1,-1z" fill="#af4b58" id="svg_533"/>
  <path d="m93,123l1,1l-1,-1z" fill="#2232c9" id="svg_534"/>
  <path d="m81,124l1,1l-1,-1z" fill="#af4b58" id="svg_535"/>
  <path d="m50,125l1,1l-1,-1z" fill="#37c4aa" id="svg_536"/>
  <path d="m54,127l4,-1l-4,1z" fill="#af4b58" id="svg_537"/>
  <path d="m91,125l1,1l-1,-1m-38,1l1,1l-1,-1z" fill="#2232c9" id="svg_538"/>
  <path d="m60,126l0,2l2,0l-2,-2z" fill="#2232c9" id="svg_540"/>
  <path d="m81,126l1,1l-1,-1m2,0l1,1l-1,-1z" fill="#af4b58" id="svg_541"/>
  <path d="m90,126l1,1l-1,-1z" fill="#2232c9" id="svg_542"/>
  <path d="m49,127l1,1l-1,-1z" fill="#af4b58" id="svg_543"/>
  <path d="m54,127l1,1l-1,-1z" fill="#37c4aa" id="svg_544"/>
  <path d="m59,127l1,1l-1,-1m25,0l1,1l-1,-1z" fill="#af4b58" id="svg_545"/>
  <path d="m89,127l1,1l-1,-1z" fill="#2232c9" id="svg_546"/>
  <path d="m60,128l2,2l-2,-2z" fill="#af4b58" id="svg_547"/>
  <path d="m61,128l1,1l-1,-1z" fill="#050404" id="svg_548"/>
  <path d="m62,128l1,1l-1,-1z" fill="#37c4aa" id="svg_549"/>
  <path d="m78,128l1,1l-1,-1z" fill="#2232c9" id="svg_550"/>
  <path d="m85,128l0,2l2,0l-2,-2z" fill="#37c4aa" id="svg_551"/>
  <path d="m88,128l1,1l-1,-1m-34,1l1,1l-1,-1m8,0l2,2l0,-2l-2,0z" fill="#2232c9" id="svg_552"/>
  <path d="m55,130l1,1l-1,-1m23,0l1,1l-1,-1m2.67,0.33l0.66,0.34l-0.66,-0.34m2.33,-0.33l1,1l-1,-1z" fill="#af4b58" id="svg_553"/>
  <path d="m86,130l1,1l-1,-1m-30,1l1,1l-1,-1z" fill="#2232c9" id="svg_554"/>
  <path d="m63,131l2,2l0,-2l-2,0m14,0l1,1l-1,-1m5,0l1,1l-1,-1m2.33,0.67l0.34,0.66l-0.34,-0.66z" fill="#af4b58" id="svg_555"/>
  <path d="m57,132l1,1l-1,-1z" fill="#2232c9" id="svg_556"/>
  <path d="m75.67,132.33l0.66,0.34l-0.66,-0.34z" fill="#af4b58" id="svg_557"/>
  <path d="m58,133l1,1l-1,-1z" fill="#2232c9" id="svg_558"/>
  <path d="m65,133l1,1l-1,-1z" fill="#af4b58" id="svg_559"/>
  <path d="m74.67,133.33l0.66,0.34l-0.66,-0.34z" fill="#2232c9" id="svg_560"/>
  <path d="m84,133l1,1l-1,-1z" fill="#e2e4e2" id="svg_561"/>
  <path d="m59,134l1,1l-1,-1z" fill="#af4b58" id="svg_562"/>
  <path d="m60,134l1,1l-1,-1z" fill="#37c4aa" id="svg_563"/>
  <path d="m67,134l1,1l-1,-1z" fill="#af4b58" id="svg_564"/>
  <path d="m68,134l1,1l-1,-1z" fill="#37c4aa" id="svg_565"/>
  <path d="m74.67,134.33l0.66,0.34l-0.66,-0.34m-13.67,0.67l1,1l-1,-1z" fill="#af4b58" id="svg_566"/>
  <path d="m68,135l1,1l-1,-1m3,0l1,1l-1,-1z" fill="#2232c9" id="svg_567"/>
  <path d="m73,135l1,1l-1,-1z" fill="#af4b58" id="svg_568"/>
  <path d="m80,135l1,1l-1,-1z" fill="#37c4aa" id="svg_569"/>
  <path d="m62,136l1,1l-1,-1z" fill="#af4b58" id="svg_570"/>
  <path d="m69,136l2,2l-2,-2z" fill="#2232c9" id="svg_571"/>
  <path d="m70,136l1,1l-1,-1z" fill="#37c4aa" id="svg_572"/>
  <path d="m71,136l0,2l2,-2l-2,0m8,0l1,1l-1,-1m-10,1l1,1l-1,-1z" fill="#af4b58" id="svg_573"/>
  <path d="m78,137l1,1l-1,-1z" fill="#37c4aa" id="svg_574"/>
  <path d="m62,138l1,1l-1,-1z" fill="#af4b58" id="svg_575"/>
  <path d="m77,138l1,1l-1,-1m-12,3l1,1l-1,-1z" fill="#37c4aa" id="svg_576"/>
  <path d="m67,141l1,1l-1,-1z" fill="#af4b58" id="svg_577"/>
  <path d="m75,141l1,1l-1,-1m-1,1l1,1l-1,-1z" fill="#2232c9" id="svg_578"/>
  <path d="m67,143l1,1l-1,-1z" fill="#af4b58" id="svg_579"/>
  <path d="m68,143l1,1l-1,-1z" fill="#050404" id="svg_580"/>
  <path d="m69,144l1,1l-1,-1z" fill="#2232c9" id="svg_581"/>
  <path d="m70,144l1,1l-1,-1z" fill="#af4b58" id="svg_582"/>
  <path d="m71,144l1,1l-1,-1z" fill="#2232c9" id="svg_583"/>
  <path d="m70,145l1,1l-1,-1z" fill="#37c4aa" id="svg_584"/>
 </g>
</svg>